<svg id="Layer_1" data-name="Layer 1" xmlns="http://www.w3.org/2000/svg" xmlns:xlink="http://www.w3.org/1999/xlink" viewBox="0 0 182.58 33.06">
  <defs>
    <style>
      .cls-1 {
        fill: url(#linear-gradient);
      }

      .cls-2 {
        font-size: 20px;
        fill: #fff;
        font-family: BMHANNAProOTF-KSCpc-EUC-H, BM HANNA Pro OTF;
        letter-spacing: 0.1em;
      }
    </style>
    <linearGradient id="linear-gradient" x1="10.68" y1="21" x2="40.26" y2="21" gradientUnits="userSpaceOnUse">
      <stop offset="0" stop-color="#2a91ff"/>
      <stop offset="0.3" stop-color="#339aff"/>
      <stop offset="0.78" stop-color="#4db4ff"/>
      <stop offset="1" stop-color="#5ac1ff"/>
    </linearGradient>
  </defs>
  <title>Aone Logo</title>
  <path class="cls-1" d="M39.47,19.41c-.53-1.15-1.18-1.72-1.94-1.72a4.4,4.4,0,0,0-2.9,1.48,11.14,11.14,0,0,0-2.41,3.74l1.42.58a11.81,11.81,0,0,1,1.66-2.63,2.39,2.39,0,0,1,1.57-1c.35,0,.63.34.85,1a8.57,8.57,0,0,1,.33,2.6,14.91,14.91,0,0,1-2,7.67c-1.37,2.32-2.87,3.49-4.52,3.49a2.44,2.44,0,0,1-2.13-1.48,7.82,7.82,0,0,1-.82-3.83,14.22,14.22,0,0,1,1.25-5.8,14.5,14.5,0,0,1,3.45-4.86l-1.17-1a12.74,12.74,0,0,0-2.9,2.87,11.54,11.54,0,0,1-1.8,1.29,4,4,0,0,1-1.8.63c-.55,0-.82-.44-.82-1.31a8.5,8.5,0,0,1,.31-2c.21-.83.53-1.89,1-3.18l.14-.39,2.19-.3c.16,0,.28-.13.35-.35l.36-1.31L29,13.56a.16.16,0,0,0-.11-.05l-2.05.25c.07-.24.42-1.06,1-2.47C28.66,9.49,29.14,8.4,29.3,8A9.49,9.49,0,0,0,30,6q0-.54-1.17-.54A8.42,8.42,0,0,0,23.92,7a11.87,11.87,0,0,0-3.09,3.41,31.06,31.06,0,0,0-1.92,3.8l-.3.6-2.35.27a.74.74,0,0,0-.38.14,1.53,1.53,0,0,0-.19.51l-.25,1a.17.17,0,0,0,.19.19l2.16-.24a15.17,15.17,0,0,1-2.71,4.61,3.65,3.65,0,0,1-2.65,1.06,5.45,5.45,0,0,1-.78,0l-.5-.06a.39.39,0,0,0-.39.18,2.45,2.45,0,0,0-.08.78,1.6,1.6,0,0,0,.23,1.05,1.58,1.58,0,0,0,1.06.24,5.69,5.69,0,0,0,3.77-1.34A10.22,10.22,0,0,0,18.06,20c.57-1.19,1.14-2.39,1.73-3.59l4-.52a34.72,34.72,0,0,0-1,3.53,10.68,10.68,0,0,0-.28,2.37A3.53,3.53,0,0,0,23,23.67a1.58,1.58,0,0,0,1.44.78,7.1,7.1,0,0,0,3.05-.81,15.27,15.27,0,0,0-1.2,5.85,8.28,8.28,0,0,0,1.45,5.05,4.44,4.44,0,0,0,3.72,2q3.49,0,6.17-3.89a15.6,15.6,0,0,0,2.66-9A10,10,0,0,0,39.47,19.41Zm-15.11-5.3-3.8.49a35.3,35.3,0,0,1,2.11-3.95,8.18,8.18,0,0,1,1.85-2.06,7.89,7.89,0,0,1,1.42-.93,2.9,2.9,0,0,1,1.17-.39.27.27,0,0,1,.22.09.22.22,0,0,1,.09.16c-.19.33-.33.6-.44.8l-.47.85c-.47,1-.81,1.7-1,2.19S24.83,12.9,24.36,14.11Z" transform="translate(-10.68 -5.5)"/>
  <text class="cls-2" transform="translate(38.6 21.82)">A One Duct</text>
</svg>
